<?xml version="1.0" standalone="no"?>
<!DOCTYPE svg PUBLIC "-//W3C//DTD SVG 20010904//EN"
 "http://www.w3.org/TR/2001/REC-SVG-20010904/DTD/svg10.dtd">
<svg version="1.0" xmlns="http://www.w3.org/2000/svg"
 width="512.000000pt" height="512.000000pt" viewBox="0 0 512.000000 512.000000"
 preserveAspectRatio="xMidYMid meet">
<metadata>
Created by potrace 1.15, written by Peter Selinger 2001-2017
</metadata>
<g transform="translate(0.000000,512.000000) scale(0.100000,-0.100000)"
fill="#000000" stroke="none">
<path d="M1157 4313 c-4 -3 -7 -231 -7 -505 l0 -498 100 0 100 0 0 415 0 415
746 0 746 0 -20 -32 c-11 -18 -410 -719 -887 -1558 -477 -839 -876 -1539 -886
-1556 l-19 -31 67 -82 68 -81 1442 0 1443 0 0 505 0 505 -100 0 -100 0 0 -420
0 -420 -780 0 -781 0 12 23 c7 12 412 726 901 1586 489 861 887 1568 886 1572
-2 5 -32 44 -68 88 l-65 80 -1396 1 c-768 0 -1399 -3 -1402 -7z m2641 -196
l21 -23 -887 -1562 -887 -1562 -346 0 -346 0 -22 24 -22 24 837 1473 c460 811
859 1513 886 1562 l49 87 348 0 348 0 21 -23z"/>
</g>
</svg>
